<svg width="32" height="50" viewBox="0 0 32 50" fill="none"
    xmlns="http://www.w3.org/2000/svg">
    <g id="Group">
        <g id="Vector">
            <path d="M28.4007 0H2.7832V2.46846H28.4007V0Z" fill="#e66e2e"/>
            <path d="M3.2832 1.96846V0.5H27.9007V1.96846H3.2832Z" stroke="black" stroke-opacity="0.8"/>
        </g>
        <g id="Vector_2">
            <path d="M30.8637 7.81907C30.4531 7.09954 27.7774 3.60022 27.7774 3.60022H24.735C23.362 5.28284 19.8682 11.6365 23.5385 30.2478C24.258 33.8935 24.6186 42.4383 22.2981 46.6047H13.1485C16.2848 42.7472 20.4522 35.1855 19.217 26.2346C17.6416 14.8184 17.3858 7.82834 19.0068 3.60022H3.40638C3.40638 3.60022 0.7307 7.09944 0.320055 7.81907C-0.0928356 8.53938 0.0118521 8.84758 0.0118521 9.87688C0.0118521 10.9054 0.0118521 42.6955 0.0118521 44.0323C0.0118521 45.3698 0.392419 47.0747 1.34857 47.5316C3.29242 48.4561 2.57201 50 4.64066 50H26.5432C28.6118 50 27.8914 48.4561 29.8352 47.5316C30.7913 47.0747 31.1719 45.3697 31.1719 44.0323C31.1719 42.6956 31.1719 10.9054 31.1719 9.87688C31.1719 8.84758 31.2759 8.53948 30.8637 7.81907Z" fill="#e66e2e"/>
            <path d="M29.6201 47.0802C28.6123 47.5596 28.2077 48.2116 27.911 48.6897C27.8779 48.743 27.8461 48.7942 27.815 48.8427C27.6625 49.0806 27.5469 49.2231 27.3912 49.3208C27.2404 49.4154 26.9983 49.5 26.5432 49.5H4.64066C4.18551 49.5 3.94341 49.4154 3.79264 49.3208C3.6369 49.2231 3.52128 49.0806 3.36877 48.8427C3.33768 48.7942 3.30594 48.743 3.27286 48.6897C2.97605 48.2115 2.57136 47.5595 1.56332 47.08L1.34857 47.5316L1.56412 47.0804C1.27383 46.9417 0.99798 46.5662 0.796471 45.9555C0.602042 45.3663 0.511852 44.6605 0.511852 44.0323V44.0242V44.0153V44.0057V43.9955V43.9845V43.9729V43.9606V43.9476V43.934V43.9196V43.9046V43.889V43.8726V43.8556V43.838V43.8197V43.8007V43.7811V43.7608V43.7399V43.7184V43.6962V43.6734V43.6499V43.6258V43.6011V43.5758V43.5498V43.5232V43.496V43.4682V43.4398V43.4107V43.3811V43.3508V43.32V43.2885V43.2565V43.2238V43.1906V43.1568V43.1224V43.0874V43.0518V43.0157V42.979V42.9417V42.9038V42.8654V42.8264V42.7869V42.7468V42.7061V42.6649V42.6232V42.5809V42.538V42.4946V42.4507V42.4062V42.3613V42.3157V42.2697V42.2231V42.176V42.1284V42.0802V42.0316V41.9824V41.9328V41.8826V41.8319V41.7808V41.7291V41.6769V41.6243V41.5711V41.5175V41.4634V41.4088V41.3537V41.2981V41.2421V41.1856V41.1287V41.0712V41.0133V40.955V40.8962V40.8369V40.7772V40.7171V40.6565V40.5954V40.5339V40.472V40.4097V40.3469V40.2837V40.22V40.156V40.0915V40.0266V39.9613V39.8955V39.8294V39.7629V39.6959V39.6286V39.5608V39.4927V39.4241V39.3552V39.2859V39.2162V39.1461V39.0756V39.0048V38.9336V38.862V38.79V38.7177V38.645V38.572V38.4986V38.4248V38.3507V38.2762V38.2014V38.1263V38.0508V37.9749V37.8988V37.8223V37.7454V37.6683V37.5908V37.513V37.4349V37.3564V37.2777V37.1986V37.1192V37.0396V36.9596V36.8793V36.7987V36.7178V36.6367V36.5552V36.4735V36.3914V36.3091V36.2266V36.1437V36.0606V35.9771V35.8935V35.8095V35.7253V35.6409V35.5562V35.4712V35.386V35.3005V35.2148V35.1288V35.0427V34.9562V34.8696V34.7827V34.6955V34.6082V34.5206V34.4328V34.3448V34.2565V34.1681V34.0794V33.9906V33.9015V33.8122V33.7228V33.6331V33.5433V33.4532V33.363V33.2725V33.1819V33.0912V33.0002V32.9091V32.8178V32.7263V32.6346V32.5428V32.4509V32.3587V32.2665V32.174V32.0815V31.9887V31.8959V31.8028V31.7097V31.6164V31.523V31.4294V31.3357V31.2419V31.148V31.054V30.9598V30.8655V30.7711V30.6766V30.582V30.4873V30.3925V30.2976V30.2026V30.1075V30.0123V29.9171V29.8217V29.7263V29.6308V29.5352V29.4395V29.3438V29.248V29.1521V29.0562V28.9602V28.8642V28.7681V28.6719V28.5757V28.4795V28.3832V28.2869V28.1905V28.0941V27.9977V27.9012V27.8047V27.7082V27.6117V27.5151V27.4186V27.322V27.2254V27.1288V27.0322V26.9356V26.839V26.7424V26.6458V26.5492V26.4527V26.3561V26.2596V26.163V26.0665V25.9701V25.8736V25.7772V25.6808V25.5845V25.4882V25.3919V25.2957V25.1996V25.1034V25.0074V24.9114V24.8154V24.7195V24.6237V24.5279V24.4322V24.3366V24.2411V24.1456V24.0502V23.9549V23.8597V23.7646V23.6695V23.5746V23.4797V23.385V23.2903V23.1958V23.1013V23.007V22.9128V22.8187V22.7247V22.6309V22.5371V22.4435V22.35V22.2567V22.1635V22.0704V21.9775V21.8847V21.7921V21.6996V21.6072V21.515V21.423V21.3311V21.2394V21.1479V21.0565V20.9653V20.8742V20.7834V20.6927V20.6022V20.5119V20.4218V20.3318V20.2421V20.1525V20.0632V19.974V19.8851V19.7963V19.7078V19.6195V19.5314V19.4435V19.3558V19.2684V19.1811V19.0941V19.0074V18.9208V18.8345V18.7485V18.6627V18.5771V18.4918V18.4067V18.3219V18.2373V18.153V18.069V17.9852V17.9017V17.8184V17.7354V17.6527V17.5703V17.4882V17.4063V17.3247V17.2434V17.1624V17.0817V17.0013V16.9212V16.8414V16.7619V16.6827V16.6038V16.5252V16.447V16.369V16.2914V16.2141V16.1372V16.0605V15.9842V15.9082V15.8326V15.7573V15.6824V15.6078V15.5335V15.4596V15.386V15.3128V15.24V15.1675V15.0954V15.0237V14.9523V14.8813V14.8107V14.7404V14.6706V14.6011V14.532V14.4633V14.395V14.327V14.2595V14.1924V14.1257V14.0594V13.9935V13.928V13.8629V13.7982V13.734V13.6702V13.6068V13.5438V13.4813V13.4192V13.3575V13.2963V13.2355V13.1752V13.1153V13.0558V12.9968V12.9383V12.8802V12.8226V12.7654V12.7087V12.6525V12.5968V12.5415V12.4867V12.4324V12.3785V12.3252V12.2723V12.2199V12.1681V12.1167V12.0658V12.0154V11.9655V11.9161V11.8673V11.8189V11.7711V11.7238V11.677V11.6307V11.585V11.5397V11.4951V11.4509V11.4073V11.3642V11.3217V11.2797V11.2383V11.1974V11.157V11.1173V11.078V11.0394V11.0013V10.9638V10.9268V10.8904V10.8546V10.8194V10.7847V10.7507V10.7172V10.6843V10.652V10.6203V10.5892V10.5587V10.5288V10.4995V10.4708V10.4427V10.4153V10.3884V10.3622V10.3366V10.3116V10.2873V10.2635V10.2404V10.218V10.1962V10.175V10.1545V10.1346V10.1153V10.0968V10.0788V10.0616V10.0449V10.029V10.0137V9.9991V9.98516V9.97189V9.9593V9.94739V9.93616V9.92561V9.91575V9.90659V9.89811V9.89034V9.88326V9.87688C0.511852 9.6483 0.507707 9.46924 0.504238 9.31935C0.499055 9.09541 0.495378 8.93657 0.50928 8.77495C0.527613 8.56182 0.578132 8.37426 0.753844 8.06772L0.754325 8.06688C0.940216 7.74111 1.68641 6.71867 2.41787 5.7389C2.77702 5.25783 3.12352 4.79899 3.38031 4.46031C3.48988 4.3158 3.58307 4.19323 3.65389 4.10022H18.3023C17.6318 6.20524 17.3605 8.87323 17.4133 12.2297C17.4721 15.9632 17.9331 20.5884 18.7217 26.3029C19.9308 35.0652 15.8486 42.4911 12.7605 46.2893L12.0975 47.1047H13.1485H22.2981H22.5919L22.7349 46.848C23.9558 44.656 24.4475 41.3772 24.558 38.2486C24.6691 35.1033 24.3973 32.0168 24.029 30.151C20.5041 12.2767 23.6405 5.89579 24.9791 4.10022H27.5299C27.6007 4.19324 27.6939 4.31581 27.8034 4.46032C28.0602 4.799 28.4067 5.25785 28.7659 5.73893C29.4973 6.71871 30.2436 7.74117 30.4295 8.0669L30.4297 8.06738C30.6052 8.37412 30.6558 8.56186 30.6742 8.77514C30.6882 8.93701 30.6846 9.0963 30.6794 9.32107C30.676 9.47065 30.6719 9.64924 30.6719 9.87688V9.88326V9.89034V9.89811V9.90659V9.91575V9.92561V9.93616V9.94739V9.9593V9.97189V9.98516V9.9991V10.0137V10.029V10.0449V10.0616V10.0788V10.0968V10.1153V10.1346V10.1545V10.175V10.1962V10.218V10.2404V10.2635V10.2873V10.3116V10.3366V10.3622V10.3884V10.4153V10.4427V10.4708V10.4995V10.5288V10.5587V10.5892V10.6203V10.652V10.6843V10.7172V10.7507V10.7847V10.8194V10.8546V10.8904V10.9268V10.9638V11.0013V11.0394V11.078V11.1173V11.157V11.1974V11.2383V11.2797V11.3217V11.3642V11.4073V11.4509V11.4951V11.5397V11.585V11.6307V11.677V11.7238V11.7711V11.8189V11.8673V11.9162V11.9655V12.0154V12.0658V12.1167V12.1681V12.2199V12.2723V12.3252V12.3785V12.4324V12.4867V12.5415V12.5968V12.6525V12.7087V12.7654V12.8226V12.8802V12.9383V12.9968V13.0558V13.1153V13.1752V13.2355V13.2963V13.3575V13.4192V13.4813V13.5438V13.6068V13.6702V13.734V13.7983V13.8629V13.928V13.9935V14.0594V14.1257V14.1924V14.2595V14.3271V14.395V14.4633V14.532V14.6011V14.6706V14.7404V14.8107V14.8813V14.9523V15.0237V15.0954V15.1675V15.24V15.3128V15.386V15.4596V15.5335V15.6078V15.6824V15.7573V15.8326V15.9083V15.9842V16.0605V16.1372V16.2141V16.2914V16.3691V16.447V16.5253V16.6038V16.6827V16.7619V16.8414V16.9212V17.0013V17.0817V17.1624V17.2434V17.3247V17.4063V17.4882V17.5703V17.6527V17.7354V17.8184V17.9017V17.9852V18.069V18.153V18.2373V18.3219V18.4067V18.4918V18.5771V18.6627V18.7485V18.8346V18.9209V19.0074V19.0942V19.1812V19.2684V19.3558V19.4435V19.5314V19.6195V19.7078V19.7964V19.8851V19.974V20.0632V20.1526V20.2421V20.3319V20.4218V20.5119V20.6022V20.6927V20.7834V20.8743V20.9653V21.0565V21.1479V21.2394V21.3311V21.423V21.5151V21.6072V21.6996V21.7921V21.8847V21.9775V22.0704V22.1635V22.2567V22.3501V22.4436V22.5372V22.6309V22.7248V22.8187V22.9128V23.007V23.1014V23.1958V23.2903V23.385V23.4797V23.5746V23.6695V23.7646V23.8597V23.9549V24.0502V24.1456V24.2411V24.3366V24.4323V24.528V24.6237V24.7195V24.8154V24.9114V25.0074V25.1035V25.1996V25.2958V25.392V25.4882V25.5845V25.6809V25.7773V25.8737V25.9701V26.0666V26.1631V26.2596V26.3561V26.4527V26.5493V26.6458V26.7424V26.839V26.9356V27.0322V27.1288V27.2254V27.322V27.4186V27.5152V27.6117V27.7082V27.8048V27.9012V27.9977V28.0941V28.1905V28.2869V28.3832V28.4795V28.5758V28.6719V28.7681V28.8642V28.9602V29.0562V29.1521V29.248V29.3438V29.4395V29.5352V29.6308V29.7263V29.8217V29.9171V30.0124V30.1076V30.2026V30.2976V30.3926V30.4874V30.5821V30.6767V30.7712V30.8656V30.9598V31.054V31.1481V31.242V31.3358V31.4295V31.523V31.6164V31.7097V31.8029V31.8959V31.9888V32.0815V32.1741V32.2665V32.3588V32.4509V32.5429V32.6347V32.7263V32.8178V32.9091V33.0002V33.0912V33.182V33.2726V33.363V33.4532V33.5433V33.6332V33.7228V33.8123V33.9016V33.9906V34.0795V34.1681V34.2566V34.3448V34.4328V34.5206V34.6082V34.6956V34.7827V34.8696V34.9563V35.0427V35.1289V35.2148V35.3006V35.386V35.4712V35.5562V35.6409V35.7254V35.8096V35.8935V35.9772V36.0606V36.1437V36.2266V36.3092V36.3915V36.4735V36.5553V36.6367V36.7179V36.7988V36.8793V36.9596V37.0396V37.1193V37.1987V37.2777V37.3565V37.4349V37.513V37.5908V37.6683V37.7455V37.8223V37.8988V37.975V38.0508V38.1263V38.2015V38.2763V38.3507V38.4248V38.4986V38.572V38.645V38.7177V38.79V38.862V38.9336V39.0048V39.0756V39.1461V39.2162V39.2859V39.3552V39.4242V39.4927V39.5608V39.6286V39.6959V39.7629V39.8294V39.8956V39.9613V40.0266V40.0915V40.156V40.2201V40.2837V40.3469V40.4097V40.4721V40.534V40.5955V40.6565V40.7171V40.7773V40.837V40.8962V40.955V41.0134V41.0713V41.1287V41.1856V41.2421V41.2982V41.3537V41.4088V41.4634V41.5175V41.5711V41.6243V41.6769V41.7291V41.7808V41.832V41.8826V41.9328V41.9825V42.0316V42.0803V42.1284V42.176V42.2231V42.2697V42.3158V42.3613V42.4063V42.4507V42.4947V42.538V42.5809V42.6232V42.665V42.7062V42.7468V42.7869V42.8265V42.8654V42.9039V42.9417V42.979V43.0157V43.0519V43.0874V43.1224V43.1568V43.1906V43.2239V43.2565V43.2885V43.32V43.3508V43.3811V43.4107V43.4398V43.4682V43.496V43.5232V43.5498V43.5758V43.6011V43.6258V43.6499V43.6734V43.6962V43.7184V43.7399V43.7608V43.7811V43.8007V43.8197V43.838V43.8556V43.8726V43.889V43.9046V43.9196V43.934V43.9476V43.9606V43.9729V43.9845V43.9955V44.0057V44.0153V44.0242V44.0323C30.6719 44.6605 30.5817 45.3663 30.3873 45.9555C30.1859 46.5659 29.9102 46.9413 29.6201 47.0802ZM29.6201 47.0802C29.6202 47.0801 29.6203 47.0801 29.6204 47.08L29.8352 47.5316L29.6196 47.0804C29.6198 47.0803 29.6199 47.0803 29.6201 47.0802Z" stroke="black" stroke-opacity="0.8"/>
        </g>
    </g>
</svg>
