<svg width="72" height="129" viewBox="0 0 72 129" fill="none" xmlns="http://www.w3.org/2000/svg">
<path id="Vector" d="M50.1633 106.179C50.0679 105.563 49.725 104.848 49.9284 104.353C50.4069 103.178 51.1278 102.097 51.7763 100.994C52.9224 99.0279 54.1147 97.0889 55.23 95.1067C56.0203 93.7099 61.301 91.2432 62.9531 91.54C63.2379 91.5932 63.5585 91.4391 64.3 91.2996C63.3519 90.6753 62.7473 90.2719 62.0247 89.7982C63.0455 87.6215 65.0159 87.8681 66.7853 87.5696C68.017 87.363 69.2078 86.8955 70.3348 86.2551C71.7164 86.7902 71.5655 89.3659 69.9625 89.663C69.383 89.7697 68.7581 89.579 68.1549 89.5759C67.6819 89.5706 67.2071 89.6432 66.6084 90.1447C67.3873 90.422 68.1715 90.6995 69.5541 91.193C67.6527 93.9169 65.9061 96.4623 64.1136 98.9703C62.3103 101.494 60.2609 103.861 58.6732 106.508C56.5672 110.013 54.7484 113.701 52.925 117.362C52.4568 118.303 52.4258 119.462 52.0722 121.097C51.4125 120.136 51.0699 119.64 50.39 118.653C50.2189 119.798 50.1018 120.617 49.979 121.462C49.0079 121.641 48.7936 122.236 49.3361 123.246C49.3761 123.32 49.4831 123.416 49.4614 123.457C49.079 124.286 48.8834 125.363 48.2376 125.879C47.221 126.699 47.5537 129.504 44.9578 128.156C43.7498 127.531 42.3678 127.246 40.8762 126.745C41.3215 125.195 41.4386 124.142 39.1421 124.059C36.056 123.944 35.9577 120.421 34.17 118.739C33.6555 118.259 32.893 117.244 32.6983 117.349C30.7939 118.341 30.2561 116.806 29.3166 115.797C26.0411 112.276 22.7126 108.807 19.3575 105.357C18.9255 104.911 18.2383 104.714 17.5911 104.356C18.0451 104.049 18.3566 103.838 18.6628 103.631C18.5082 103.337 18.4706 103.154 18.3583 103.063C15.6764 100.908 12.9892 98.7575 10.2912 96.6279C9.8262 96.2588 9.23327 96.0324 8.8055 95.6277C7.91936 94.7916 7.1024 93.8843 6.12157 92.8641C4.54125 93.7804 1.40146 90.9391 0.897733 87.1736C3.37111 84.9148 5.6322 85.4175 8.13705 87.3504C9.46101 88.3731 11.439 88.5107 12.9276 89.381C14.7395 90.4405 16.3135 91.9107 18.055 93.0986C20.3956 94.7002 22.7631 96.2609 25.1954 97.7138C26.0267 98.2106 27.2459 98.1026 28.003 98.6602C30.74 100.676 33.3539 102.851 36.1844 105.103C36.9512 103.825 37.4262 103.04 37.8961 102.255L37.1785 102.255C37.0885 100.927 36.988 99.6039 36.9187 98.2764C36.9035 98.0265 37.1022 97.7449 37.0448 97.52C35.9498 93.2214 37.6264 89.1458 38.0314 84.969C38.0791 84.4605 38.3372 83.8475 38.1484 83.4533C35.4768 78.0329 37.7472 72.9773 39.2029 67.8515C39.3383 67.3762 39.4753 66.828 39.3764 66.3631C38.9206 64.1846 38.3863 62.0252 37.8834 59.8561C37.8266 59.6053 37.6627 59.2585 37.7701 59.1049C39.6501 56.4065 38.6695 53.2752 39.0619 50.3668C39.3798 47.9976 39.3452 45.579 39.5441 43.1863C39.7853 40.2954 40.3645 37.4017 40.2935 34.5194C40.2622 33.12 39.2875 31.5904 38.3887 30.39C36.6162 28.0263 34.5368 25.9053 32.1429 24.1257C32.0151 24.0292 31.8531 23.828 31.8767 23.7038C32.5045 20.0311 29.5121 17.8066 28.3927 14.8386C28.1571 14.2094 28.1421 13.2471 28.4661 12.7084C29.5352 10.933 30.8328 9.40202 31.6534 7.34559C33.0409 3.87706 37.0161 2.59283 40.0703 1.80808C42.0837 1.29134 45.745 -0.374254 47.8925 2.89221C48.0486 3.12447 48.5031 3.25939 48.8201 3.27164C53.4805 3.43781 56.326 7.12019 59.9717 9.19287C62.7239 10.7569 63.7408 18.0956 62.5108 21.0268C61.9123 22.4538 61.8025 24.1153 61.6634 25.6929C61.4334 28.3137 59.9636 30.1061 58.0364 31.6543C56.5327 32.8635 54.9531 33.9827 53.5562 35.3035C52.3451 36.4517 51.3896 35.9261 50.3608 35.1908C48.7384 34.0263 48.065 34.8485 48.108 36.4198C48.1663 38.4698 48.4953 40.5102 48.6941 42.5581C49.2017 47.7848 50.6818 53.0019 48.7867 58.2478C48.6482 58.6295 48.647 59.1495 48.7894 59.527C50.3462 63.6383 48.8623 67.9314 49.4736 72.0008C50.0529 75.8771 48.3299 79.463 49.3684 83.5003C50.2633 86.9781 48.8261 91.0383 48.5125 94.8479C48.3692 96.6126 48.3866 98.4017 48.4408 100.171C48.4888 101.753 48.6198 103.341 48.8658 104.902C48.9663 105.528 49.4841 106.091 49.8089 106.685C49.9323 106.511 50.0506 106.337 50.174 106.168L50.1633 106.179ZM47.1538 27.429C48.6816 26.0694 51.5937 24.4236 51.3856 23.4934C50.7267 20.6292 52.9136 19.092 53.434 16.5037C52.3136 15.678 51.1421 14.5808 49.7694 13.8795C48.8131 13.3902 47.3278 13.7783 46.53 13.1782C44.1215 11.3566 42.0302 12.5684 39.9389 13.5462C38.7304 14.112 38.2537 15.2038 39.0613 16.5321C39.7334 17.639 40.7135 18.6904 40.9779 19.8922C41.7379 23.3618 44.3873 25.1055 47.159 27.4291L47.1538 27.429Z" fill="#800080"/>
</svg>
