<svg width="32" height="50" viewBox="0 0 32 50" fill="none" xmlns="http://www.w3.org/2000/svg">
<g id="Group">
<g id="Vector">
<path d="M28.4007 47.3998H2.7832V49.8682H28.4007V47.3998Z" fill="#AAE759"/>
<path d="M3.2832 49.3682V47.8998H27.9007V49.3682H3.2832Z" stroke="black" stroke-opacity="0.8"/>
</g>
<g id="Vector_2">
<path d="M30.8637 4.21885C30.4531 3.49932 27.7774 0 27.7774 0H24.735C23.362 1.68262 19.8682 8.03633 23.5385 26.6476C24.258 30.2933 24.6186 38.8381 22.2981 43.0045H13.1485C16.2848 39.147 20.4522 31.5853 19.217 22.6344C17.6416 11.2182 17.3858 4.22812 19.0068 0H3.40638C3.40638 0 0.7307 3.49922 0.320055 4.21885C-0.0928356 4.93916 0.0118521 5.24736 0.0118521 6.27666C0.0118521 7.30517 0.0118521 39.0953 0.0118521 40.4321C0.0118521 41.7696 0.392419 43.4745 1.34857 43.9313C3.29242 44.8559 2.57201 46.3998 4.64066 46.3998H26.5432C28.6118 46.3998 27.8914 44.8559 29.8352 43.9313C30.7913 43.4745 31.1719 41.7695 31.1719 40.4321C31.1719 39.0954 31.1719 7.30517 31.1719 6.27666C31.1719 5.24736 31.2759 4.93926 30.8637 4.21885Z" fill="#AAE759"/>
<path d="M29.6201 43.48C28.6123 43.9594 28.2077 44.6114 27.911 45.0895C27.8779 45.1428 27.8461 45.194 27.815 45.2425C27.6625 45.4804 27.5469 45.6229 27.3912 45.7206C27.2404 45.8152 26.9983 45.8998 26.5432 45.8998H4.64066C4.18551 45.8998 3.94341 45.8152 3.79264 45.7206C3.6369 45.6229 3.52128 45.4804 3.36877 45.2425C3.33768 45.194 3.30594 45.1428 3.27286 45.0895C2.97605 44.6113 2.57136 43.9592 1.56332 43.4798L1.34857 43.9313L1.56412 43.4802C1.27383 43.3415 0.99798 42.966 0.796471 42.3553C0.602042 41.7661 0.511852 41.0603 0.511852 40.4321V40.4239V40.4151V40.4055V40.3952V40.3843V40.3727V40.3604V40.3474V40.3337V40.3194V40.3044V40.2887V40.2724V40.2554V40.2378V40.2194V40.2005V40.1809V40.1606V40.1397V40.1182V40.096V40.0732V40.0497V40.0256V40.0009V39.9756V39.9496V39.923V39.8958V39.868V39.8395V39.8105V39.7809V39.7506V39.7197V39.6883V39.6563V39.6236V39.5904V39.5566V39.5222V39.4872V39.4516V39.4155V39.3788V39.3415V39.3036V39.2652V39.2262V39.1867V39.1466V39.1059V39.0647V39.023V38.9806V38.9378V38.8944V38.8505V38.806V38.761V38.7155V38.6695V38.6229V38.5758V38.5282V38.48V38.4314V38.3822V38.3326V38.2824V38.2317V38.1805V38.1289V38.0767V38.024V37.9709V37.9173V37.8631V37.8085V37.7535V37.6979V37.6419V37.5854V37.5284V37.471V37.4131V37.3548V37.296V37.2367V37.177V37.1169V37.0563V36.9952V36.9337V36.8718V36.8095V36.7467V36.6835V36.6198V36.5558V36.4913V36.4264V36.361V36.2953V36.2292V36.1626V36.0957V36.0283V35.9606V35.8924V35.8239V35.755V35.6856V35.6159V35.5459V35.4754V35.4045V35.3333V35.2617V35.1898V35.1175V35.0448V34.9717V34.8983V34.8246V34.7505V34.676V34.6012V34.526V34.4506V34.3747V34.2986V34.2221V34.1452V34.0681V33.9906V33.9128V33.8347V33.7562V33.6775V33.5984V33.519V33.4393V33.3594V33.2791V33.1985V33.1176V33.0364V32.955V32.8733V32.7912V32.7089V32.6263V32.5435V32.4603V32.3769V32.2933V32.2093V32.1251V32.0407V31.9559V31.871V31.7858V31.7003V31.6146V31.5286V31.4424V31.356V31.2693V31.1824V31.0953V31.0079V30.9204V30.8326V30.7446V30.6563V30.5679V30.4792V30.3904V30.3013V30.212V30.1226V30.0329V29.943V29.853V29.7628V29.6723V29.5817V29.4909V29.4V29.3088V29.2175V29.1261V29.0344V28.9426V28.8507V28.7585V28.6662V28.5738V28.4812V28.3885V28.2956V28.2026V28.1095V28.0162V27.9228V27.8292V27.7355V27.6417V27.5478V27.4537V27.3596V27.2653V27.1709V27.0764V26.9818V26.8871V26.7923V26.6974V26.6024V26.5073V26.4121V26.3168V26.2215V26.1261V26.0305V25.935V25.8393V25.7436V25.6478V25.5519V25.456V25.36V25.2639V25.1678V25.0717V24.9755V24.8792V24.783V24.6866V24.5903V24.4939V24.3974V24.301V24.2045V24.108V24.0115V23.9149V23.8183V23.7218V23.6252V23.5286V23.432V23.3354V23.2388V23.1422V23.0456V22.949V22.8524V22.7559V22.6593V22.5628V22.4663V22.3699V22.2734V22.177V22.0806V21.9843V21.888V21.7917V21.6955V21.5993V21.5032V21.4071V21.3111V21.2152V21.1193V21.0235V20.9277V20.832V20.7364V20.6408V20.5454V20.45V20.3547V20.2595V20.1643V20.0693V19.9743V19.8795V19.7847V19.6901V19.5956V19.5011V19.4068V19.3126V19.2185V19.1245V19.0306V18.9369V18.8433V18.7498V18.6565V18.5633V18.4702V18.3773V18.2845V18.1918V18.0993V18.007V17.9148V17.8228V17.7309V17.6392V17.5476V17.4563V17.3651V17.274V17.1832V17.0925V17.002V16.9117V16.8215V16.7316V16.6419V16.5523V16.463V16.3738V16.2849V16.1961V16.1076V16.0193V15.9311V15.8433V15.7556V15.6681V15.5809V15.4939V15.4072V15.3206V15.2343V15.1483V15.0625V14.9769V14.8916V14.8065V14.7217V14.6371V14.5528V14.4687V14.385V14.3014V14.2182V14.1352V14.0525V13.9701V13.8879V13.8061V13.7245V13.6432V13.5622V13.4815V13.4011V13.321V13.2412V13.1617V13.0825V13.0036V12.925V12.8468V12.7688V12.6912V12.6139V12.5369V12.4603V12.384V12.308V12.2324V12.1571V12.0821V12.0075V11.9333V11.8594V11.7858V11.7126V11.6398V11.5673V11.4952V11.4234V11.3521V11.2811V11.2105V11.1402V11.0703V11.0009V10.9318V10.8631V10.7947V10.7268V10.6593V10.5922V10.5255V10.4592V10.3933V10.3278V10.2627V10.198V10.1338V10.07V10.0066V9.94361V9.88107V9.81897V9.7573V9.69607V9.63529V9.57494V9.51505V9.4556V9.39661V9.33807V9.27999V9.22237V9.16521V9.10852V9.05229V8.99654V8.94127V8.88647V8.83215V8.77831V8.72495V8.67209V8.61972V8.56783V8.51645V8.46556V8.41518V8.3653V8.31593V8.26706V8.21871V8.17088V8.12356V8.07676V8.03049V7.98474V7.93952V7.89484V7.85069V7.80707V7.764V7.72146V7.67948V7.63804V7.59715V7.55682V7.51704V7.47782V7.43916V7.40107V7.36354V7.32659V7.2902V7.2544V7.21917V7.18452V7.15045V7.11698V7.08409V7.05179V7.02009V6.98898V6.95848V6.92857V6.89928V6.87059V6.84251V6.81505V6.7882V6.76197V6.73637V6.71139V6.68703V6.66331V6.64022V6.61776V6.59595V6.57477V6.55424V6.53436V6.51512V6.49654V6.47861V6.46134V6.44473V6.42878V6.4135V6.39888V6.38494V6.37167V6.35908V6.34717V6.33594V6.32539V6.31554V6.30637V6.29789V6.29012V6.28304V6.27666C0.511852 6.04808 0.507707 5.86902 0.504238 5.71913C0.499055 5.49519 0.495378 5.33636 0.50928 5.17473C0.527613 4.9616 0.578132 4.77404 0.753844 4.4675L0.754325 4.46666C0.940216 4.14089 1.68641 3.11845 2.41787 2.13868C2.77702 1.65761 3.12352 1.19877 3.38031 0.860089C3.48988 0.715583 3.58307 0.593013 3.65389 0.5H18.3023C17.6318 2.60502 17.3605 5.27301 17.4133 8.62952C17.4721 12.363 17.9331 16.9882 18.7217 22.7027C19.9308 31.465 15.8486 38.8908 12.7605 42.6891L12.0975 43.5045H13.1485H22.2981H22.5919L22.7349 43.2478C23.9558 41.0557 24.4475 37.777 24.558 34.6484C24.6691 31.5031 24.3973 28.4165 24.029 26.5507C20.5041 8.67649 23.6405 2.29557 24.9791 0.5H27.5299C27.6007 0.593015 27.6939 0.715589 27.8034 0.860099C28.0602 1.19878 28.4067 1.65764 28.7659 2.13871C29.4973 3.11849 30.2436 4.14095 30.4295 4.46668L30.4297 4.46716C30.6052 4.7739 30.6558 4.96164 30.6742 5.17492C30.6882 5.33679 30.6846 5.49608 30.6794 5.72085C30.676 5.87043 30.6719 6.04902 30.6719 6.27666V6.28304V6.29012V6.29789V6.30637V6.31554V6.32539V6.33594V6.34717V6.35908V6.37167V6.38494V6.39888V6.4135V6.42878V6.44473V6.46134V6.47861V6.49654V6.51512V6.53436V6.55424V6.57477V6.59595V6.61776V6.64022V6.66331V6.68703V6.71139V6.73637V6.76197V6.7882V6.81505V6.84251V6.87059V6.89928V6.92858V6.95848V6.98898V7.02009V7.05179V7.08409V7.11698V7.15046V7.18452V7.21917V7.2544V7.29021V7.32659V7.36354V7.40107V7.43916V7.47782V7.51704V7.55682V7.59715V7.63804V7.67948V7.72147V7.764V7.80708V7.85069V7.89484V7.93953V7.98475V8.03049V8.07677V8.12356V8.17088V8.21872V8.26707V8.31593V8.3653V8.41518V8.46557V8.51646V8.56784V8.61972V8.6721V8.72496V8.77831V8.83215V8.88647V8.94127V8.99655V9.0523V9.10852V9.16521V9.22237V9.27999V9.33807V9.39661V9.45561V9.51505V9.57495V9.63529V9.69608V9.75731V9.81898V9.88108V9.94361V10.0066V10.07V10.1338V10.198V10.2627V10.3278V10.3933V10.4592V10.5255V10.5922V10.6593V10.7268V10.7948V10.8631V10.9318V11.0009V11.0704V11.1402V11.2105V11.2811V11.3521V11.4235V11.4952V11.5673V11.6398V11.7126V11.7858V11.8594V11.9333V12.0075V12.0822V12.1571V12.2324V12.308V12.384V12.4603V12.537V12.6139V12.6912V12.7688V12.8468V12.925V13.0036V13.0825V13.1617V13.2412V13.321V13.4011V13.4815V13.5622V13.6432V13.7245V13.8061V13.888V13.9701V14.0525V14.1352V14.2182V14.3015V14.385V14.4688V14.5528V14.6371V14.7217V14.8065V14.8916V14.9769V15.0625V15.1483V15.2343V15.3206V15.4072V15.4939V15.5809V15.6682V15.7556V15.8433V15.9312V16.0193V16.1076V16.1961V16.2849V16.3738V16.463V16.5523V16.6419V16.7316V16.8216V16.9117V17.002V17.0925V17.1832V17.274V17.3651V17.4563V17.5477V17.6392V17.7309V17.8228V17.9148V18.007V18.0994V18.1919V18.2845V18.3773V18.4702V18.5633V18.6565V18.7499V18.8433V18.9369V19.0307V19.1245V19.2185V19.3126V19.4068V19.5011V19.5956V19.6901V19.7848V19.8795V19.9744V20.0693V20.1644V20.2595V20.3547V20.45V20.5454V20.6409V20.7364V20.832V20.9277V21.0235V21.1193V21.2152V21.3112V21.4072V21.5032V21.5994V21.6955V21.7917V21.888V21.9843V22.0807V22.177V22.2734V22.3699V22.4664V22.5629V22.6594V22.7559V22.8525V22.949V23.0456V23.1422V23.2388V23.3354V23.432V23.5286V23.6252V23.7218V23.8184V23.9149V24.0115V24.108V24.2045V24.301V24.3975V24.4939V24.5903V24.6867V24.783V24.8793V24.9755V25.0717V25.1679V25.264V25.36V25.456V25.5519V25.6478V25.7436V25.8393V25.935V26.0306V26.1261V26.2215V26.3169V26.4122V26.5073V26.6024V26.6974V26.7923V26.8871V26.9818V27.0765V27.171V27.2653V27.3596V27.4538V27.5478V27.6418V27.7356V27.8292V27.9228V28.0162V28.1095V28.2027V28.2957V28.3885V28.4813V28.5739V28.6663V28.7586V28.8507V28.9427V29.0345V29.1261V29.2176V29.3089V29.4V29.491V29.5818V29.6724V29.7628V29.853V29.9431V30.0329V30.1226V30.2121V30.3013V30.3904V30.4793V30.5679V30.6564V30.7446V30.8326V30.9204V31.008V31.0953V31.1825V31.2694V31.356V31.4425V31.5287V31.6146V31.7003V31.7858V31.871V31.956V32.0407V32.1252V32.2094V32.2933V32.377V32.4604V32.5435V32.6264V32.709V32.7913V32.8733V32.955V33.0365V33.1177V33.1985V33.2791V33.3594V33.4394V33.5191V33.5984V33.6775V33.7563V33.8347V33.9128V33.9906V34.0681V34.1453V34.2221V34.2986V34.3748V34.4506V34.5261V34.6012V34.676V34.7505V34.8246V34.8984V34.9718V35.0448V35.1175V35.1898V35.2618V35.3334V35.4046V35.4754V35.5459V35.616V35.6857V35.755V35.8239V35.8925V35.9606V36.0284V36.0957V36.1627V36.2292V36.2954V36.3611V36.4264V36.4913V36.5558V36.6199V36.6835V36.7467V36.8095V36.8718V36.9338V36.9952V37.0563V37.1169V37.177V37.2368V37.296V37.3548V37.4132V37.471V37.5285V37.5854V37.6419V37.6979V37.7535V37.8086V37.8632V37.9173V37.9709V38.0241V38.0767V38.1289V38.1806V38.2317V38.2824V38.3326V38.3823V38.4314V38.4801V38.5282V38.5758V38.6229V38.6695V38.7155V38.7611V38.8061V38.8505V38.8944V38.9378V38.9807V39.023V39.0647V39.1059V39.1466V39.1867V39.2262V39.2652V39.3036V39.3415V39.3788V39.4155V39.4516V39.4872V39.5222V39.5566V39.5904V39.6236V39.6563V39.6883V39.7198V39.7506V39.7809V39.8105V39.8396V39.868V39.8958V39.923V39.9496V39.9756V40.0009V40.0256V40.0497V40.0732V40.096V40.1182V40.1397V40.1606V40.1809V40.2005V40.2195V40.2378V40.2554V40.2724V40.2887V40.3044V40.3194V40.3337V40.3474V40.3604V40.3727V40.3843V40.3952V40.4055V40.4151V40.4239V40.4321C30.6719 41.0602 30.5817 41.766 30.3873 42.3553C30.1859 42.9656 29.9102 43.3411 29.6201 43.48ZM29.6201 43.48C29.6202 43.4799 29.6203 43.4799 29.6204 43.4798L29.8352 43.9313L29.6196 43.4802C29.6198 43.4801 29.6199 43.4801 29.6201 43.48Z" stroke="black" stroke-opacity="0.8"/>
</g>
</g>
</svg>
