<svg width="28" height="15" viewBox="0 0 28 15" fill="none" xmlns="http://www.w3.org/2000/svg">
<path d="M0.401563 7.85C0.651563 3.1 3.85156 0.0499969 7.85156 0.0499969C11.4016 0.0499969 12.7016 2 13.0016 2.65C10.1516 1.7 6.40156 2.8 7.35156 5.7C10.0016 5.5 11.6016 7.5 11.6016 9.95C11.6016 12.75 9.35156 14.7 6.45156 14.7C2.60156 14.7 0.201563 11.6 0.401563 7.85ZM15.0016 7.8C15.2516 3.05 18.4516 -2.5034e-06 22.4516 -2.5034e-06C26.0016 -2.5034e-06 27.3016 1.95 27.6016 2.6C24.7516 1.65 21.0016 2.75 21.9516 5.65C24.6016 5.45 26.2016 7.45 26.2016 9.9C26.2016 12.7 23.9516 14.65 21.0516 14.65C17.2016 14.65 14.8016 11.55 15.0016 7.8Z" fill="black"/>
</svg>
