<svg width="92" height="15" viewBox="0 0 92 15" fill="none" xmlns="http://www.w3.org/2000/svg">
<g clip-path="url(#clip0_88_444)">
<path d="M7.19416 0.486272C7.46678 -0.162091 8.39532 -0.162091 8.66794 0.486274L10.277 4.31303C10.392 4.58637 10.6518 4.77313 10.9501 4.79678L15.1266 5.12799C15.8343 5.18411 16.1212 6.05763 15.582 6.51446L12.4 9.2107C12.1728 9.40331 12.0734 9.70552 12.1429 9.99343L13.1151 14.0249C13.2798 14.7079 12.5286 15.2478 11.9227 14.8818L8.34706 12.7214C8.09165 12.5671 7.77045 12.5671 7.51505 12.7214L3.93934 14.8818C3.33351 15.2478 2.58231 14.7079 2.74703 14.0249L3.7192 9.99343C3.78865 9.70552 3.68938 9.40331 3.46211 9.2107L0.280015 6.51446C-0.259122 6.05763 0.0278125 5.18411 0.735439 5.12799L4.91198 4.79678C5.2103 4.77313 5.47017 4.58637 5.5851 4.31303L7.19416 0.486272Z" fill="black"/>
<path d="M26.2286 0.486272C26.5012 -0.162091 27.4297 -0.162091 27.7024 0.486274L29.3114 4.31303C29.4264 4.58637 29.6863 4.77313 29.9846 4.79678L34.1611 5.12799C34.8687 5.18411 35.1556 6.05763 34.6165 6.51446L31.4344 9.2107C31.2072 9.40331 31.1079 9.70552 31.1773 9.99343L32.1495 14.0249C32.3142 14.7079 31.563 15.2478 30.9572 14.8818L27.3815 12.7214C27.1261 12.5671 26.8049 12.5671 26.5495 12.7214L22.9738 14.8818C22.3679 15.2478 21.6167 14.7079 21.7814 14.0249L22.7536 9.99343C22.8231 9.70552 22.7238 9.40331 22.4965 9.2107L19.3144 6.51446C18.7753 6.05763 19.0622 5.18411 19.7699 5.12799L23.9464 4.79678C24.2447 4.77313 24.5046 4.58637 24.6195 4.31303L26.2286 0.486272Z" fill="black"/>
<path d="M45.263 0.486272C45.5356 -0.162091 46.4642 -0.162091 46.7368 0.486274L48.3458 4.31303C48.4608 4.58637 48.7207 4.77313 49.019 4.79678L53.1955 5.12799C53.9031 5.18411 54.19 6.05763 53.6509 6.51446L50.4689 9.2107C50.2416 9.40331 50.1423 9.70552 50.2117 9.99343L51.1839 14.0249C51.3486 14.7079 50.5974 15.2478 49.9916 14.8818L46.4159 12.7214C46.1605 12.5671 45.8393 12.5671 45.5839 12.7214L42.0082 14.8818C41.4024 15.2478 40.6512 14.7079 40.8159 14.0249L41.7881 9.99343C41.8575 9.70552 41.7582 9.40331 41.531 9.2107L38.3489 6.51446C37.8097 6.05763 38.0967 5.18411 38.8043 5.12799L42.9808 4.79678C43.2792 4.77313 43.539 4.58637 43.6539 4.31303L45.263 0.486272Z" fill="black"/>
<path d="M64.2977 0.486272C64.5703 -0.162091 65.4988 -0.162091 65.7715 0.486274L67.3805 4.31303C67.4955 4.58637 67.7554 4.77313 68.0537 4.79678L72.2301 5.12799C72.9378 5.18411 73.2247 6.05763 72.6856 6.51446L69.5035 9.2107C69.2763 9.40331 69.177 9.70552 69.2464 9.99343L70.2186 14.0249C70.3833 14.7079 69.6321 15.2478 69.0263 14.8818L65.4506 12.7214C65.1952 12.5671 64.874 12.5671 64.6186 12.7214L61.0429 14.8818C60.437 15.2478 59.6858 14.7079 59.8505 14.0249L60.8227 9.99343C60.8922 9.70552 60.7929 9.40331 60.5656 9.2107L57.3835 6.51446C56.8444 6.05763 57.1313 5.18411 57.839 5.12799L62.0155 4.79678C62.3138 4.77313 62.5737 4.58637 62.6886 4.31303L64.2977 0.486272Z" fill="black"/>
<path d="M83.3321 0.486272C83.6047 -0.162091 84.5333 -0.162091 84.8059 0.486274L86.4149 4.31303C86.5299 4.58637 86.7898 4.77313 87.0881 4.79678L91.2646 5.12799C91.9722 5.18411 92.2591 6.05763 91.72 6.51446L88.538 9.2107C88.3107 9.40331 88.2114 9.70552 88.2808 9.99343L89.253 14.0249C89.4177 14.7079 88.6665 15.2478 88.0607 14.8818L84.485 12.7214C84.2296 12.5671 83.9084 12.5671 83.653 12.7214L80.0773 14.8818C79.4714 15.2478 78.7203 14.7079 78.885 14.0249L79.8571 9.99343C79.9266 9.70552 79.8273 9.40331 79.6 9.2107L76.418 6.51446C75.8788 6.05763 76.1658 5.18411 76.8734 5.12799L81.0499 4.79678C81.3482 4.77313 81.6081 4.58637 81.723 4.31303L83.3321 0.486272Z" fill="black"/>
</g>
<defs>
<clipPath id="clip0_88_444">
<rect width="92" height="15" fill="white"/>
</clipPath>
</defs>
</svg>
